<?xml version="1.0" encoding="iso-8859-1"?>
<!-- Uploaded to: SVG Repo, www.svgrepo.com, Generator: SVG Repo Mixer Tools -->
<svg version="1.1" id="Capa_1" xmlns="http://www.w3.org/2000/svg" xmlns:xlink="http://www.w3.org/1999/xlink" 
	 viewBox="0 0 458.37 458.37" xml:space="preserve">
<g>
	<g>
		<g>
			<rect x="61.021" y="345.59" style="fill:#010002;" width="9.681" height="37.416"/>
		</g>
		<g>
			<rect x="85.244" y="345.59" style="fill:#010002;" width="9.689" height="37.416"/>
		</g>
		<g>
			<circle style="fill:#010002;" cx="338.393" cy="367.261" r="12.518"/>
		</g>
		<g>
			<path style="fill:#010002;" d="M413.59,109.569l-0.35-0.073l-0.171-0.301c-9.185-16.403-25.703-26.182-44.203-26.182
				c-2.723,0-5.503,0.219-8.242,0.658l-0.561,0.081l-0.236-0.488c-8.641-18.135-26.491-29.385-46.593-29.385
				c-28.499,0-51.698,23.199-51.698,51.698c0,1.162,0.073,2.382,0.171,3.625l0.057,0.658l-0.626,0.146
				c-16.241,3.699-29.425,14.713-36.66,28.962H47.081L0,330.252v74.238h381.872v-74.604l-21.671-111.597h43.301
				c30.263,0,54.868-24.605,54.868-54.852C458.37,137.052,439.528,114.389,413.59,109.569z M372.191,394.801H9.689v-59.127h362.502
				C372.191,335.674,372.191,394.801,372.191,394.801z M403.502,210.583H273.299c-26.02,0-47.162-21.142-47.162-47.154
				c0-23.296,17.371-43.333,40.423-46.634c1.016-0.154,1.943-0.707,2.552-1.528c0.602-0.837,0.853-1.861,0.699-2.886
				c-0.398-2.504-0.585-4.739-0.585-6.812c0-24.28,19.744-44.016,44-44.016c18.216,0,34.294,10.982,40.952,27.979
				c0.699,1.756,2.585,2.764,4.446,2.333c3.39-0.78,6.836-1.187,10.218-1.187c16.265,0,31.01,9.21,38.464,24.036
				c0.561,1.122,1.634,1.894,2.886,2.081c23.077,3.268,40.488,23.321,40.488,46.634
				C450.689,189.441,429.522,210.583,403.502,210.583z"/>
		</g>
	</g>
</g>
</svg>